{"title":"All.Good.Things.2010.720P.Bluray.X264.Hive-CM8","uid":6261284,"size":3711049042,"categoryP":"video","categoryS":"hd___movies","magnet":"?xt=urn:btih:4f21ecac1666816d43ea48cd8fff5a058f63eccd&amp;dn=All.Good.Things.2010.720P.Bluray.X264.Hive-CM8&amp;tr=udp%3A%2F%2Ftracker.openbittorrent.com%3A80&amp;tr=udp%3A%2F%2Fopen.demonii.com%3A1337&amp;tr=udp%3A%2F%2Ftracker.coppersurfer.tk%3A6969&amp;tr=udp%3A%2F%2Fexodus.desync.com%3A6969","seeders":2,"leechers":0,"uploader":"gibresh","files":-1,"time":1300766702,"description":"Title...........All Good Things\nYear............2010\nDirector........Andrew Jarecki\nCast............Ryan Gosling, Kirsten Dunst, Frank Langella, Lily Rabe, Philip Baker Hall, Michael Esper  \n &lt;a href=&quot;\nhttp://www.imdb.com/title/tt1175709/&quot; rel=&quot;nofollow&quot; target=&quot;_NEW&quot;&gt;\nhttp://www.imdb.com/title/tt1175709/&lt;/a&gt;\n\nLanguage........English\nsubtitle.(not include): FOR English, see here:- &lt;a href=&quot;\nhttp://subscene.com/english/All-Good-Things/subtitle-392375.aspx&quot; rel=&quot;nofollow&quot; target=&quot;_NEW&quot;&gt;\nhttp://subscene.com/english/All-Good-Things/subtitle-392375.aspx&lt;/a&gt;\n                        FOR Hebrew:  see here:- &lt;a href=&quot;\nhttp://www.sratim.co.il/subtitles.php?mid=47538&quot; rel=&quot;nofollow&quot; target=&quot;_NEW&quot;&gt;\nhttp://www.sratim.co.il/subtitles.php?mid=47538&lt;/a&gt; \n                \n\n\nVideo: 1280x720 @bitrate 4500\nAudio: English AC3 5.1 @384\nSample: yes included\n\n\nGeneral\nComplete name : All.Good.Things.2010.720P.Bluray.X264.Hive-CM8.mkv\nFormat : Matroska\nFile size : 3.44 GiB\nDuration : 1h 40mn\nOverall bit rate : 4 881 Kbps\nEncoded date : UTC 2010-12-06 16:04:53\nWriting application : mkvmerge v3.3.0 (\\'Language\\') built on Mar 24 2010 14:59:24\nWriting library : libebml v0.8.0 + libmatroska v0.9.0\n\nVideo\nID : 1\nFormat : AVC\nFormat/Info : Advanced Video Codec\nFormat profile : &lt;a class=&quot;__cf_email__&quot; href=&quot;/cdn-cgi/l/email-protection&quot; data-cfemail=&quot;357d5c525d7579061b04&quot;&gt;[email&amp;#160;protected]&lt;/a&gt;&lt;script cf-hash='f9e31' type=&quot;text/javascript&quot;&gt;\n/* &lt;![CDATA[ */!function(){try{var t=&quot;currentScript&quot;in document?document.currentScript:function(){for(var t=document.getElementsByTagName(&quot;script&quot;),e=t.length;e--;)if(t[e].getAttribute(&quot;cf-hash&quot;))return t[e]}();if(t&amp;&amp;t.previousSibling){var e,r,n,i,c=t.previousSibling,a=c.getAttribute(&quot;data-cfemail&quot;);if(a){for(e=&quot;&quot;,r=parseInt(a.substr(0,2),16),n=2;a.length-n;n+=2)i=parseInt(a.substr(n,2),16)^r,e+=String.fromCharCode(i);e=document.createTextNode(e),c.parentNode.replaceChild(e,c)}}}catch(u){}}();/* ]]&gt; */&lt;/script&gt;\nFormat settings, CABAC : Yes\nFormat settings, ReFrames : 5 frames\nMuxing mode : Container profile=&lt;a class=&quot;__cf_email__&quot; href=&quot;/cdn-cgi/l/email-protection&quot; data-cfemail=&quot;0c59626762637b624c3f223d&quot;&gt;[email&amp;#160;protected]&lt;/a&gt;&lt;script cf-hash='f9e31' type=&quot;text/javascript&quot;&gt;\n/* &lt;![CDATA[ */!function(){try{var t=&quot;currentScript&quot;in document?document.currentScript:function(){for(var t=document.getElementsByTagName(&quot;script&quot;),e=t.length;e--;)if(t[e].getAttribute(&quot;cf-hash&quot;))return t[e]}();if(t&amp;&amp;t.previousSibling){var e,r,n,i,c=t.previousSibling,a=c.getAttribute(&quot;data-cfemail&quot;);if(a){for(e=&quot;&quot;,r=parseInt(a.substr(0,2),16),n=2;a.length-n;n+=2)i=parseInt(a.substr(n,2),16)^r,e+=String.fromCharCode(i);e=document.createTextNode(e),c.parentNode.replaceChild(e,c)}}}catch(u){}}();/* ]]&gt; */&lt;/script&gt;\nCodec ID : V_MPEG4/ISO/AVC\nDuration : 1h 40mn\nBit rate : 4 500 Kbps\nWidth : 1 280 pixels\nHeight : 720 pixels\nDisplay aspect ratio : 16:9\nFrame rate : 23.976 fps\nColor space : YUV\nChroma subsampling : 4:2:0\nBit depth : 8 bits\nScan type : Progressive\nBits/(Pixel*Frame) : 0.204\nStream size : 3.10 GiB (90%)\nWriting library : x264 core 98 r1649 c54c47d\nLanguage : English\n\nAudio\nID : 2\nFormat : AC-3\nFormat/Info : Audio Coding 3\nMode extension : CM (complete main)\nCodec ID : A_AC3\nDuration : 1h 40mn\nBit rate mode : Constant\nBit rate : 384 Kbps\nChannel(s) : 6 channels\nChannel positions : Front: L C R, Side: L R, LFE\nSampling rate : 48.0 KHz\nBit depth : 16 bits\nStream size : 277 MiB (8%)\nLanguage : English\n\n\nAll Good Things is a love story and murder mystery based on the most notorious unsolved \nmurder case in New York\n\n\nReferred from: http://1337x.org\n\n","torrent":{"xt":"urn:btih:4f21ecac1666816d43ea48cd8fff5a058f63eccd","amp;dn":"All.Good.Things.2010.720P.Bluray.X264.Hive-CM8","amp;tr":["udp%3A%2F%2Ftracker.openbittorrent.com%3A80","udp%3A%2F%2Fopen.demonii.com%3A1337","udp%3A%2F%2Ftracker.coppersurfer.tk%3A6969","udp%3A%2F%2Fexodus.desync.com%3A6969"],"infoHash":"4f21ecac1666816d43ea48cd8fff5a058f63eccd","infoHashBuffer":{"type":"Buffer","data":[79,33,236,172,22,102,129,109,67,234,72,205,143,255,90,5,143,99,236,205]},"announce":[],"urlList":[]}}